<svg width="1188" height="794" viewBox="0 0 1188 794" fill="none" xmlns="http://www.w3.org/2000/svg">
<path d="M1188 535.617V590.662C1188 690.417 1080.02 793.588 948.363 793.588H239.637C106.326 793.588 0 692.103 0 590.619V535.617H1188Z" fill="#9D5125"/>
<path d="M457.295 0.69024C515.804 0.477125 573.113 17.6041 622.243 49.9861C671.373 82.3681 710.206 128.608 734.014 183.077C759.848 165.054 790.449 155.463 821.757 155.577C861.736 155.156 900.269 170.804 929.008 199.13C957.748 227.457 974.381 266.182 975.306 306.917C1030.35 313.396 1081.53 338.973 1120.26 379.356C1158.98 419.738 1182.9 472.468 1188 528.696V549.321C1188 650.806 1080.02 752.247 946.666 752.247H239.637C106.326 752.247 0 650.763 0 549.321V528.696C2.79016 482.287 18.803 437.716 46.0765 400.443C73.35 363.171 110.7 334.815 153.549 318.851V310.203C153.386 269.507 161.132 229.181 176.34 191.552C191.547 153.922 213.915 119.734 242.154 90.9593C270.392 62.1847 303.942 39.3933 340.867 23.9002C377.793 8.40698 417.363 0.518646 457.295 0.69024Z" fill="#F58535"/>
<path d="M297.005 360.285L217.706 642.341H264.929L283.512 573.546H364.508L381.48 642.341H428.533L354.283 360.285H297.005ZM290.258 537.57L324.201 398.25L356.277 537.57H290.258Z" fill="white"/>
<path d="M627.738 582.15H626.083L588.958 360.285H541.692L506.265 580.421H504.567L467.442 360.285H423.571L477.583 644.027H528.2L563.628 430.81H565.325L600.753 644.027H653.067L708.776 360.285H663.208L627.738 582.15Z" fill="white"/>
<path d="M852.185 489.199L821.806 478.864C791.428 466.844 779.632 452.92 779.632 429.009C779.069 423.583 779.631 418.097 781.283 412.907C782.934 407.717 785.638 402.939 789.219 398.883C792.8 394.827 797.178 391.583 802.068 389.363C806.958 387.143 812.252 385.996 817.606 385.996C822.96 385.996 828.254 387.143 833.144 389.363C838.034 391.583 842.412 394.827 845.993 398.883C849.574 402.939 852.278 407.717 853.929 412.907C855.581 418.097 856.143 423.583 855.58 429.009V434.154H899.493V427.279C899.493 398.049 892.747 353.338 820.194 353.338C809.123 351.866 797.87 352.885 787.227 356.324C776.584 359.763 766.81 365.538 758.595 373.243C750.379 380.948 743.921 390.396 739.675 400.919C735.43 411.443 733.5 422.788 734.022 434.154C733.064 452.142 738.512 469.878 749.363 484.099C760.215 498.32 775.74 508.069 793.082 511.554L823.461 521.888C835.143 523.452 845.812 529.46 853.327 538.707C860.843 547.955 864.648 559.756 863.98 571.744C864.155 577.36 863.17 582.951 861.09 588.154C859.01 593.358 855.881 598.058 851.905 601.951C847.93 605.844 843.196 608.842 838.011 610.752C832.826 612.662 827.305 613.441 821.806 613.039C791.428 613.039 776.238 595.844 776.238 561.453V554.578H732.367V561.453C730.975 573.088 732.2 584.892 735.949 595.973C739.698 607.053 745.873 617.118 754.005 625.406C762.137 633.694 772.013 639.986 782.886 643.807C793.758 647.628 805.341 648.876 816.757 647.458C872.424 647.458 909.549 623.373 909.549 563.183C909.786 546.011 904.212 529.279 893.765 515.804C883.317 502.33 868.633 492.934 852.185 489.199Z" fill="white"/>
</svg>
