<svg width="1508" height="1551" viewBox="0 0 1508 1551" fill="none" xmlns="http://www.w3.org/2000/svg">
<g clip-path="url(#clip0_420_520)">
<path d="M1488.81 1163.25C1500.65 1144.51 1508 1123.41 1508 1104.45V446.54C1508 427.587 1500.66 406.485 1488.82 387.752L754 775.5L1488.81 1163.25Z" fill="#00599C"/>
<path d="M819.298 1536.78L1442.7 1207.83C1460.66 1198.35 1476.98 1181.98 1488.82 1163.25L754 775.5L19.1855 1163.25C31.0179 1181.98 47.3447 1198.35 65.2978 1207.83L688.703 1536.78C724.614 1555.73 783.387 1555.73 819.298 1536.78Z" fill="#004482"/>
<path d="M1488.82 387.748C1476.98 369.01 1460.66 352.647 1442.7 343.17L819.297 14.2151C783.386 -4.73835 724.614 -4.73835 688.703 14.2151L65.2974 343.17C29.3814 362.119 0 408.638 0 446.54V1104.46C0 1123.41 7.3478 1144.51 19.1851 1163.25L754 775.5L1488.82 387.748Z" fill="#659AD2"/>
<path d="M754.001 1234.92C476.829 1234.92 251.334 1028.83 251.334 775.5C251.334 522.174 476.829 316.078 754.001 316.078C932.851 316.078 1099.65 404.044 1189.3 545.645L971.764 660.698C926.893 589.821 843.446 545.789 754.001 545.789C615.412 545.789 502.667 648.835 502.667 775.5C502.667 902.161 615.412 1005.21 754.001 1005.21C843.456 1005.21 926.903 961.179 971.778 890.288L1189.32 1005.34C1099.67 1146.95 932.861 1234.92 754.001 1234.92Z" fill="white"/>
<path d="M1256.67 749.975H1200.81V698.93H1144.97V749.975H1089.11V801.02H1144.97V852.07H1200.81V801.02H1256.67V749.975Z" fill="white"/>
<path d="M1466.11 749.975H1410.26V698.93H1354.41V749.975H1298.55V801.02H1354.41V852.07H1410.26V801.02H1466.11V749.975Z" fill="white"/>
</g>
<defs>
<clipPath id="clip0_420_520">
<rect width="1508" height="1551" fill="white"/>
</clipPath>
</defs>
</svg>
