<svg id="visual" viewBox="0 0 960 300" width="960" height="300" xmlns="http://www.w3.org/2000/svg" xmlns:xlink="http://www.w3.org/1999/xlink" version="1.1"><rect x="0" y="0" width="960" height="300" fill="#223240"></rect><path d="M0 99L17.8 107.7C35.7 116.3 71.3 133.7 106.8 143C142.3 152.3 177.7 153.7 213.2 144.7C248.7 135.7 284.3 116.3 320 117.7C355.7 119 391.3 141 426.8 145.8C462.3 150.7 497.7 138.3 533.2 133.7C568.7 129 604.3 132 640 137.3C675.7 142.7 711.3 150.3 746.8 149.8C782.3 149.3 817.7 140.7 853.2 137C888.7 133.3 924.3 134.7 942.2 135.3L960 136L960 301L942.2 301C924.3 301 888.7 301 853.2 301C817.7 301 782.3 301 746.8 301C711.3 301 675.7 301 640 301C604.3 301 568.7 301 533.2 301C497.7 301 462.3 301 426.8 301C391.3 301 355.7 301 320 301C284.3 301 248.7 301 213.2 301C177.7 301 142.3 301 106.8 301C71.3 301 35.7 301 17.8 301L0 301Z" fill="#e63ce0"></path><path d="M0 146L17.8 145.3C35.7 144.7 71.3 143.3 106.8 139.2C142.3 135 177.7 128 213.2 126.5C248.7 125 284.3 129 320 138.7C355.7 148.3 391.3 163.7 426.8 172.3C462.3 181 497.7 183 533.2 176C568.7 169 604.3 153 640 143.7C675.7 134.3 711.3 131.7 746.8 128.7C782.3 125.7 817.7 122.3 853.2 121.8C888.7 121.3 924.3 123.7 942.2 124.8L960 126L960 301L942.2 301C924.3 301 888.7 301 853.2 301C817.7 301 782.3 301 746.8 301C711.3 301 675.7 301 640 301C604.3 301 568.7 301 533.2 301C497.7 301 462.3 301 426.8 301C391.3 301 355.7 301 320 301C284.3 301 248.7 301 213.2 301C177.7 301 142.3 301 106.8 301C71.3 301 35.7 301 17.8 301L0 301Z" fill="#bd2fb8"></path><path d="M0 203L17.8 196.8C35.7 190.7 71.3 178.3 106.8 171.2C142.3 164 177.7 162 213.2 165.5C248.7 169 284.3 178 320 180C355.7 182 391.3 177 426.8 181.8C462.3 186.7 497.7 201.3 533.2 204.7C568.7 208 604.3 200 640 189.8C675.7 179.7 711.3 167.3 746.8 164.2C782.3 161 817.7 167 853.2 175.7C888.7 184.3 924.3 195.7 942.2 201.3L960 207L960 301L942.2 301C924.3 301 888.7 301 853.2 301C817.7 301 782.3 301 746.8 301C711.3 301 675.7 301 640 301C604.3 301 568.7 301 533.2 301C497.7 301 462.3 301 426.8 301C391.3 301 355.7 301 320 301C284.3 301 248.7 301 213.2 301C177.7 301 142.3 301 106.8 301C71.3 301 35.7 301 17.8 301L0 301Z" fill="#952391"></path><path d="M0 243L17.8 239.2C35.7 235.3 71.3 227.7 106.8 221.5C142.3 215.3 177.7 210.7 213.2 211.8C248.7 213 284.3 220 320 218.5C355.7 217 391.3 207 426.8 209.5C462.3 212 497.7 227 533.2 230.8C568.7 234.7 604.3 227.3 640 226.2C675.7 225 711.3 230 746.8 230C782.3 230 817.7 225 853.2 223.2C888.7 221.3 924.3 222.7 942.2 223.3L960 224L960 301L942.2 301C924.3 301 888.7 301 853.2 301C817.7 301 782.3 301 746.8 301C711.3 301 675.7 301 640 301C604.3 301 568.7 301 533.2 301C497.7 301 462.3 301 426.8 301C391.3 301 355.7 301 320 301C284.3 301 248.7 301 213.2 301C177.7 301 142.3 301 106.8 301C71.3 301 35.7 301 17.8 301L0 301Z" fill="#6f186c"></path><path d="M0 268L17.8 265.5C35.7 263 71.3 258 106.8 258.3C142.3 258.7 177.7 264.3 213.2 266.2C248.7 268 284.3 266 320 266C355.7 266 391.3 268 426.8 266.8C462.3 265.7 497.7 261.3 533.2 256.5C568.7 251.7 604.3 246.3 640 248.2C675.7 250 711.3 259 746.8 263.7C782.3 268.3 817.7 268.7 853.2 264.2C888.7 259.7 924.3 250.3 942.2 245.7L960 241L960 301L942.2 301C924.3 301 888.7 301 853.2 301C817.7 301 782.3 301 746.8 301C711.3 301 675.7 301 640 301C604.3 301 568.7 301 533.2 301C497.7 301 462.3 301 426.8 301C391.3 301 355.7 301 320 301C284.3 301 248.7 301 213.2 301C177.7 301 142.3 301 106.8 301C71.3 301 35.7 301 17.8 301L0 301Z" fill="#4b0d49"></path></svg>