<svg width="1934" height="1240" viewBox="0 0 1934 1240" fill="none" xmlns="http://www.w3.org/2000/svg">
<path d="M1154.79 281.543H778.094V958.459H1154.79V281.543Z" fill="#FF5A00"/>
<path d="M803.17 620C803.17 482.472 867.81 360.409 967 281.542C894.001 224.135 801.915 189.439 701.471 189.439C463.527 189.439 271 382.007 271 620C271 857.994 463.527 1050.56 701.471 1050.56C801.915 1050.56 894.001 1015.87 967 958.458C867.671 880.706 803.17 757.529 803.17 620Z" fill="#EB001B"/>
<path d="M1663.02 620C1663.02 857.994 1470.49 1050.56 1232.55 1050.56C1132.1 1050.56 1040.02 1015.87 967.02 958.458C1067.46 879.453 1130.85 757.529 1130.85 620C1130.85 482.472 1066.21 360.409 967.02 281.542C1039.88 224.135 1131.96 189.439 1232.41 189.439C1470.49 189.439 1663.02 383.262 1663.02 620Z" fill="#F79E1B"/>
</svg>
