<svg width="1074" height="1203" viewBox="0 0 1074 1203" fill="none" xmlns="http://www.w3.org/2000/svg">
<path d="M536.513 1202.27C520.189 1202.27 504.152 1198.01 490.014 1189.9L342.046 1102.86C319.963 1090.58 330.724 1086.24 338.027 1083.71C361.513 1076.5 384.001 1066.4 404.967 1053.65C406.722 1052.85 408.655 1052.5 410.583 1052.64C412.512 1052.79 414.371 1053.41 415.987 1054.47L529.685 1121.58C531.802 1122.7 534.161 1123.28 536.556 1123.28C538.951 1123.28 541.31 1122.7 543.427 1121.58L986.812 867.301C988.887 866.066 990.603 864.316 991.793 862.224C992.982 860.131 993.604 857.767 993.597 855.364V346.713C993.598 344.272 992.967 341.871 991.763 339.743C990.56 337.614 988.825 335.83 986.726 334.561L543.341 80.4933C541.25 79.3233 538.891 78.7086 536.491 78.7086C534.092 78.7086 531.733 79.3233 529.642 80.4933L86.5165 334.647C84.4028 335.889 82.6477 337.652 81.4212 339.766C80.1947 341.88 79.5383 344.273 79.5157 346.713V855.149C79.5217 857.547 80.1692 859.9 81.3918 861.968C82.6144 864.035 84.3681 865.742 86.4733 866.914L208.08 936.647C273.983 969.366 314.345 930.807 314.345 892.076V390.081C314.345 388.389 314.681 386.714 315.332 385.151C315.984 383.588 316.939 382.168 318.143 380.972C319.346 379.776 320.776 378.827 322.349 378.18C323.921 377.532 325.607 377.199 327.31 377.199H383.489C386.928 377.199 390.225 378.556 392.656 380.972C395.088 383.388 396.454 386.664 396.454 390.081V892.119C396.454 979.5 348.572 1029.52 265.167 1029.52C229.185 1030.15 193.768 1020.58 163.05 1001.96L46.4995 935.53C32.3504 927.343 20.6102 915.612 12.4508 901.507C4.29148 887.403 -0.00156639 871.418 0.000307336 855.149V346.713C-0.0417487 330.419 4.23313 314.401 12.3954 300.269C20.5576 286.136 32.3196 274.387 46.4995 266.203L489.927 11.8344C504.211 4.06967 520.231 0 536.513 0C552.795 0 568.815 4.06967 583.099 11.8344L1026.48 266.203C1040.63 274.374 1052.37 286.089 1060.54 300.178C1068.71 314.268 1073.01 330.239 1073.03 346.498V855.149C1073 871.418 1068.69 887.397 1060.53 901.498C1052.36 915.6 1040.63 927.332 1026.48 935.53L583.099 1189.9C568.934 1198.02 552.866 1202.28 536.513 1202.27Z" fill="#83CD29"/>
<path d="M452.417 685.045C452.417 681.629 453.782 678.352 456.214 675.936C458.645 673.521 461.943 672.163 465.381 672.163H522.727C525.791 672.173 528.753 673.261 531.086 675.234C533.42 677.207 534.975 679.937 535.476 682.941C544.118 740.951 570.047 770.192 687.289 770.192C780.677 770.192 820.478 749.195 820.478 699.945C820.478 671.562 809.199 650.479 664.04 636.353C542.692 624.416 467.671 597.708 467.671 501.354C467.671 412.471 543.081 359.441 669.485 359.441C811.532 359.441 881.843 408.434 890.745 513.548C890.881 515.303 890.654 517.067 890.077 518.731C889.5 520.395 888.586 521.924 887.392 523.224C886.197 524.524 884.747 525.566 883.131 526.287C881.515 527.009 879.768 527.393 877.997 527.417H820.262C817.365 527.377 814.566 526.374 812.31 524.569C810.054 522.763 808.472 520.259 807.816 517.456C794.03 456.44 760.279 436.946 669.528 436.946C567.541 436.946 555.7 472.241 555.7 498.691C555.7 530.724 569.702 540.084 707.384 558.161C843.641 576.067 908.377 601.401 908.377 696.553C908.377 792.563 827.824 847.525 687.333 847.525C493.082 847.782 452.417 759.286 452.417 685.045Z" fill="#83CD29"/>
</svg>
