<svg width="889" height="981" viewBox="0 0 889 981" fill="none" xmlns="http://www.w3.org/2000/svg">
<g clip-path="url(#clip0_410_102)">
<path d="M56.6937 0C49.241 0 41.9214 1.61784 35.001 4.77998C28.1472 7.94213 21.8923 12.5015 16.6355 18.3846C11.3787 24.1941 7.18653 31.1067 4.32522 38.6811C1.46392 46.2555 0 54.4183 0 62.6546V918.198C0 926.435 1.46392 934.597 4.32522 942.172C7.18653 949.82 11.3787 956.732 16.6355 962.542C21.8923 968.351 28.1472 972.984 35.001 976.073C41.9214 979.235 49.241 980.853 56.6937 980.853H176.27C183.722 980.853 191.108 979.235 197.962 976.073C204.816 972.984 211.071 968.351 216.394 962.542C221.651 956.732 225.843 949.82 228.638 942.172C231.499 934.597 232.963 926.435 232.963 918.198V320.185C232.963 311.949 234.427 303.786 237.288 296.212C240.15 288.564 244.342 281.651 249.599 275.842C254.856 270.032 261.11 265.399 267.964 262.311C274.885 259.149 282.271 257.531 289.723 257.531H598.145C605.598 257.531 612.918 259.149 619.838 262.311C626.692 265.399 632.947 270.032 638.203 275.842C643.527 281.651 647.652 288.564 650.514 296.212C653.375 303.786 654.839 311.949 654.839 320.185V659.932C654.839 668.168 653.375 676.258 650.514 683.906C647.652 691.48 643.527 698.393 638.203 704.202C632.947 710.012 626.692 714.645 619.838 717.807C612.918 720.969 605.598 722.587 598.145 722.587H420.611C413.159 722.587 405.773 724.204 398.852 727.367C391.998 730.455 385.743 735.088 380.487 740.898C375.23 746.707 371.038 753.62 368.176 761.268C365.315 768.842 363.851 777.005 363.851 785.241V917.242C363.851 925.479 365.315 933.641 368.176 941.216C371.038 948.864 375.23 955.776 380.487 961.586C385.743 967.395 391.998 972.028 398.852 975.19C405.773 978.279 413.159 979.897 420.611 979.897H831.84C839.227 979.897 846.613 978.279 853.533 975.19C860.387 972.028 866.642 967.395 871.899 961.586C877.156 955.776 881.348 948.864 884.209 941.216C887.07 933.641 888.534 925.479 888.534 917.242V62.6546C888.534 54.4183 887.07 46.2555 884.209 38.6811C881.348 31.1067 877.156 24.1941 871.899 18.3846C866.642 12.5015 860.387 7.94213 853.533 4.77998C846.613 1.61784 839.227 0 831.84 0L56.6937 0Z" fill="#00833E"/>
</g>
<defs>
<clipPath id="clip0_410_102">
<rect width="889" height="981" fill="white"/>
</clipPath>
</defs>
</svg>
