<svg width="1015" height="1000" viewBox="0 0 1015 1000" fill="none" xmlns="http://www.w3.org/2000/svg">
<path d="M779.854 747.25C787.1 689.736 784.922 681.344 829.819 690.626L841.244 691.601C875.784 693.084 920.948 686.303 947.931 674.562C1005.05 649.302 1038.93 607.088 982.605 618.192C854.135 643.453 844.8 601.959 844.8 601.959C980.515 409.962 1037.28 166.256 988.25 106.623C854.713 -56.1304 623.512 20.8382 619.645 22.8726L618.4 23.0845C593.062 17.9985 565.056 15.0316 532.606 14.6078C474.461 13.7601 430.363 29.1453 396.846 53.3464C396.846 53.3464 -15.546 -108.644 3.61332 257.084C7.70301 334.9 120.525 846.216 255.218 691.516C304.517 634.976 352.081 587.21 352.081 587.21C375.642 602.171 403.958 609.8 433.608 607.045L435.92 605.181C435.236 612.507 435.55 619.886 436.854 627.135C402.18 664.094 412.404 670.578 343.057 684.184C272.91 697.958 314.163 722.498 341.013 728.941C373.641 736.739 449.123 747.759 500.155 679.691L498.11 687.447C511.713 697.831 510.779 762.042 512.779 807.901C514.78 853.76 517.936 896.61 527.76 921.828C537.584 947.046 549.098 1012.11 640.227 993.88C716.375 978.326 774.608 955.905 779.943 747.632" fill="black"/>
<path d="M779.854 747.25C787.1 689.736 784.922 681.344 829.819 690.626L841.244 691.601C875.784 693.084 920.948 686.303 947.931 674.562C1005.05 649.302 1038.93 607.088 982.605 618.192C854.135 643.453 844.8 601.959 844.8 601.959C980.515 409.962 1037.28 166.256 988.25 106.623C854.713 -56.1304 623.512 20.8382 619.645 22.8726L618.4 23.0845C593.062 17.9985 565.056 15.0316 532.606 14.6078C474.461 13.7601 430.363 29.1453 396.846 53.3464C396.846 53.3464 -15.546 -108.644 3.61332 257.084C7.70301 334.9 120.525 846.216 255.218 691.516C304.517 634.976 352.081 587.21 352.081 587.21C375.642 602.171 403.958 609.8 433.608 607.045L435.92 605.181C435.236 612.507 435.55 619.886 436.854 627.135C402.18 664.094 412.404 670.578 343.057 684.184C272.91 697.958 314.163 722.498 341.013 728.941C373.641 736.739 449.123 747.759 500.155 679.691L498.11 687.447C511.713 697.831 510.779 762.042 512.779 807.901C514.78 853.76 517.936 896.61 527.76 921.828C537.584 947.046 549.098 1012.11 640.227 993.88C716.375 978.325 774.608 955.905 779.943 747.632" stroke="black" stroke-width="5.3725"/>
<path d="M982.204 618.571C853.735 643.831 844.4 602.338 844.4 602.338C980.115 410.34 1036.88 166.635 987.894 107.001C854.357 -55.7521 623.156 21.2589 619.289 23.2509L618.044 23.4628C589.805 18.0604 561.095 15.2081 532.294 14.9437C474.15 14.096 430.052 29.4813 396.534 53.6823C396.534 53.6823 -15.9017 -108.308 3.302 257.42C7.39169 335.236 120.214 846.552 254.907 691.852C304.516 634.973 352.081 587.207 352.081 587.207C375.641 602.168 403.958 609.797 433.608 607.042L435.92 605.177C435.241 612.503 435.554 619.882 436.853 627.132C402.18 664.09 412.404 670.575 343.057 684.18C272.91 697.955 314.163 722.495 341.012 728.937C373.641 736.736 449.122 747.756 500.155 679.688L498.11 687.444C511.712 697.828 521.225 754.961 519.625 806.754C518.025 858.546 516.958 894.064 527.627 921.867C538.295 949.671 548.964 1012.14 640.093 993.919C716.241 978.365 755.671 937.973 761.228 870.753C765.14 822.944 773.941 829.98 774.564 787.257L781.676 766.998C789.811 702.151 783.01 681.256 829.908 691.004L841.332 691.979C875.872 693.462 921.081 686.681 947.575 674.941C1004.7 649.68 1038.53 607.466 982.204 618.571Z" fill="#336791"/>
<path d="M505.622 655.318C502.066 775.942 506.511 897.413 518.869 926.573C531.227 955.733 557.766 1013.46 648.939 994.896C725.087 979.341 752.826 949.206 764.829 882.706L792.967 670.068M396.357 50.6319C396.357 50.6319 -16.3462 -110.256 2.8575 255.472C6.94719 333.288 119.769 844.603 254.462 689.903C303.627 633.406 348.081 589.2 348.081 589.2M619.245 21.2601C605.02 25.4984 848.801 -63.719 987.405 105.095C1036.3 164.728 979.626 408.434 843.911 600.432" stroke="white" stroke-width="1.79" stroke-linecap="round" stroke-linejoin="round"/>
<path d="M843.955 600.346C843.955 600.346 852.846 641.882 981.76 616.537C1038.08 605.432 1004.16 647.646 947.086 672.907C900.233 693.675 795.145 698.973 793.412 670.364C788.967 596.405 848.711 618.868 844.4 600.346C840.488 583.647 813.727 567.287 796.123 526.429C780.698 490.827 584.527 217.453 850.534 258.014C860.314 256.107 781.187 16.4278 532.25 12.9523C283.312 9.47686 291.18 304.763 291.18 304.763" stroke="white" stroke-width="1.79" stroke-linecap="round" stroke-linejoin="bevel"/>
<path d="M435.964 625.695C401.291 662.653 411.515 669.138 342.168 682.743C272.021 696.518 313.273 721.058 340.123 727.5C372.752 735.299 448.233 746.318 499.265 678.208C514.824 657.44 499.176 624.381 477.839 615.989C467.526 611.92 453.745 606.834 436.053 625.737L435.964 625.695Z" stroke="white" stroke-width="1.79" stroke-linejoin="round"/>
<path d="M433.697 625.058C430.141 603.315 441.165 577.504 452.945 547.242C470.638 501.892 511.446 456.541 478.817 312.564C454.501 205.334 291.225 290.228 291.225 304.765C291.225 319.303 298.604 378.513 288.558 447.386C275.355 537.324 348.569 613.36 432.853 605.604" stroke="white" stroke-width="1.79" stroke-linecap="round" stroke-linejoin="round"/>
<path d="M394.845 302.6C394.089 307.558 404.403 320.824 417.783 322.605C431.163 324.385 442.588 314.043 443.344 309.042C444.099 304.041 433.786 298.615 420.406 296.835C407.025 295.055 395.512 297.683 394.845 302.6Z" fill="white" stroke="white" stroke-width="0.5975"/>
<path d="M802.214 292.471C802.925 297.43 792.656 310.696 779.276 312.476C765.895 314.256 754.382 303.914 753.715 298.913C753.048 293.912 763.273 288.487 776.653 286.706C790.033 284.926 801.547 287.554 802.214 292.471Z" fill="white" stroke="white" stroke-width="0.2975"/>
<path d="M850.045 258.098C852.268 297.091 841.244 323.58 839.821 365.074C837.776 425.343 869.96 494.344 821.462 563.429" stroke="white" stroke-width="1.79" stroke-linecap="round" stroke-linejoin="round"/>
</svg>
