<svg width="1219" height="1269" viewBox="0 0 1219 1269" fill="none" xmlns="http://www.w3.org/2000/svg">
<path d="M602.093 0.00866249C551.841 0.209357 503.851 3.89306 461.625 10.3153C337.233 29.2041 314.648 68.74 314.648 141.651V237.944H608.602V270.042H314.648H204.329C118.898 270.042 44.0921 314.177 20.6937 398.138C-6.29607 494.377 -7.49321 554.431 20.6937 654.92C41.589 729.72 91.4898 783.016 176.921 783.016H277.989V667.582C277.989 584.188 361.937 510.627 461.625 510.627H755.237C836.968 510.627 902.214 452.786 902.214 382.236V141.651C902.214 73.1788 835.009 21.743 755.237 10.3153C704.74 3.09028 652.345 -0.192035 602.093 0.00866249ZM443.124 77.4554C473.488 77.4554 498.284 99.116 498.284 125.749C498.284 152.288 473.488 173.749 443.124 173.749C412.652 173.749 387.965 152.288 387.965 125.749C387.965 99.116 412.652 77.4554 443.124 77.4554Z" fill="url(#paint0_linear_411_182)"/>
<path d="M938.869 270.043V382.238C938.869 469.221 853.071 542.432 755.233 542.432H461.622C381.197 542.432 314.645 601.595 314.645 670.823V911.408C314.645 979.88 383.917 1020.15 461.622 1039.8C554.671 1063.32 643.901 1067.57 755.233 1039.8C829.237 1021.38 902.21 984.319 902.21 911.408V815.115H608.599V783.017H902.21H1049.19C1134.62 783.017 1166.45 731.798 1196.16 654.921C1226.85 575.777 1225.55 499.667 1196.16 398.139C1175.05 325.04 1134.73 270.043 1049.19 270.043H938.869ZM773.734 879.31C804.206 879.31 828.893 900.771 828.893 927.31C828.893 953.943 804.206 975.604 773.734 975.604C743.37 975.604 718.575 953.943 718.575 927.31C718.575 900.771 743.37 879.31 773.734 879.31Z" fill="url(#paint1_linear_411_182)"/>
<path opacity="0.44382" d="M611.937 1269C829.494 1269 1005.86 1239.61 1005.86 1203.35C1005.86 1167.09 829.494 1137.69 611.937 1137.69C394.379 1137.69 218.014 1167.09 218.014 1203.35C218.014 1239.61 394.379 1269 611.937 1269Z" fill="url(#paint2_radial_411_182)"/>
<defs>
<linearGradient id="paint0_linear_411_182" x1="-3.66049e-06" y1="-2.73306e-06" x2="590.056" y2="584.99" gradientUnits="userSpaceOnUse">
<stop stop-color="#5A9FD4"/>
<stop offset="1" stop-color="#306998"/>
</linearGradient>
<linearGradient id="paint1_linear_411_182" x1="766.67" y1="919.214" x2="569.65" y2="598.007" gradientUnits="userSpaceOnUse">
<stop stop-color="#FFD43B"/>
<stop offset="1" stop-color="#FFE873"/>
</linearGradient>
<radialGradient id="paint2_radial_411_182" cx="0" cy="0" r="1" gradientUnits="userSpaceOnUse" gradientTransform="translate(611.937 1203.35) rotate(-90) scale(65.6543 335.744)">
<stop stop-color="#B8B8B8" stop-opacity="0.498039"/>
<stop offset="1" stop-color="#7F7F7F" stop-opacity="0"/>
</radialGradient>
</defs>
</svg>
