<svg width="1240" height="1098" viewBox="0 0 1240 1098" fill="none" xmlns="http://www.w3.org/2000/svg">
<path d="M619.999 657.783C681.145 657.783 730.714 608.531 730.714 547.776C730.714 487.021 681.145 437.77 619.999 437.77C558.854 437.77 509.285 487.021 509.285 547.776C509.285 608.531 558.854 657.783 619.999 657.783Z" fill="#00D8FF"/>
<path d="M620 800.028C486.927 803.226 354.188 785.403 226.743 747.224C167.87 728.681 112.961 699.47 64.79 661.067C46.4083 647.948 31.1006 631.033 19.9171 611.483C8.7337 591.932 1.93925 570.209 0 547.805C0 475.068 80.4228 403.784 215.14 357.141C345.992 315.812 482.711 295.781 620 297.826C755.457 295.945 890.344 315.614 1019.55 356.085C1076.24 374.045 1129.29 401.844 1176.23 438.194C1194.3 450.701 1209.37 467.004 1220.39 485.946C1231.42 504.888 1238.11 526.006 1240 547.805C1240 623.401 1150.1 700.01 1005.29 747.62C880.308 784.555 750.37 802.229 620 800.028ZM620 350.453C488.654 348.708 357.865 367.75 232.544 406.864C108.544 449.855 52.9657 508.642 52.9657 547.673C52.9657 588.507 112.707 652.707 243.881 697.282C365.803 733.621 492.75 750.537 620 747.401C744.727 749.617 869.059 732.848 988.679 697.677C1124.86 652.839 1186.86 588.551 1186.86 547.805C1184.62 533.822 1179.49 520.451 1171.8 508.538C1164.1 496.624 1153.99 486.426 1142.13 478.588C1100.13 446.341 1052.75 421.704 1002.14 405.808C878.541 367.251 749.535 348.564 620 350.453Z" fill="#00D8FF"/>
<path d="M368.44 1096.39C347.781 1096.87 327.365 1091.88 309.274 1081.96C245.857 1045.61 223.892 940.801 250.507 801.533C279.853 668.253 330.7 540.566 401.079 423.418C467.097 305.891 551.614 199.617 651.426 108.623C695.409 68.7878 746.147 37.0108 801.289 14.7655C821.233 5.47832 842.99 0.664063 865.016 0.664062C887.042 0.664063 908.798 5.47832 928.743 14.7655C994.684 52.5198 1016.52 168.159 985.739 316.58C955.487 442.628 905.961 563.322 838.887 674.453C775.193 790.592 693.337 895.941 596.379 986.564C550.799 1027.96 497.902 1060.62 440.36 1082.89C417.324 1091.38 393.008 1095.95 368.44 1096.39ZM446.959 449.555C379.826 561.733 331.092 683.812 302.587 811.213C278.097 939.481 301.613 1016.62 335.802 1036.24C371.23 1056.62 457.233 1037.3 561.659 946.653C654.217 859.834 732.346 758.991 793.14 647.875C857.396 541.632 904.904 426.24 934.013 305.711C962.976 166.003 937.954 80.4615 902.437 60.1323C889.125 55.0643 874.9 52.7957 860.661 53.4698C846.422 54.1439 832.478 57.746 819.712 64.0485C770.629 84.1729 725.504 112.743 686.412 148.446C591.05 235.605 510.318 337.346 447.269 449.819L446.959 449.555Z" fill="#00D8FF"/>
<path d="M871.411 1096.99C811.404 1096.99 735.189 1060.91 655.829 993.097C554.268 901.276 468.322 793.739 401.319 674.651C331.822 559.115 281.378 433.276 251.899 301.904C239.114 244.106 236.745 184.514 244.901 125.894C246.787 104.148 253.451 83.078 264.424 64.1697C275.397 45.2614 290.411 28.9751 308.407 16.4593C374.26 -21.427 485.993 17.5154 600.029 118.105C694.826 207.087 775.329 309.988 838.729 423.22C908.182 536.057 959.155 659.141 989.743 787.869C1003.08 847.788 1005.14 909.641 995.81 970.304C993.591 992.675 986.53 1014.31 975.11 1033.71C963.69 1053.12 948.181 1069.84 929.647 1082.73C911.851 1092.53 891.752 1097.45 871.411 1096.99ZM447.154 648.161C511.432 761.971 593.531 864.89 690.371 953.055C789.97 1038.2 868.976 1056.51 902.943 1036.66C938.371 1016.2 964.5 932.682 937.574 797.55C908.075 674.648 859.184 557.159 792.716 449.445C732.214 341.072 655.374 242.539 564.866 157.268C457.517 62.574 370.451 41.4088 334.979 61.826C323.922 70.7533 314.849 81.8614 308.332 94.4489C301.815 107.036 297.995 120.83 297.114 134.958C290.073 187.237 292.367 240.34 303.89 291.828C332.246 417.461 380.626 537.785 447.199 648.249L447.154 648.161Z" fill="#00D8FF"/>
</svg>
