<svg width="1543" height="1632" viewBox="0 0 1543 1632" fill="none" xmlns="http://www.w3.org/2000/svg">
<path d="M1323.61 234.18H221.469V1409.15H1323.61V234.18Z" fill="#500000"/>
<path d="M1177.27 701.824H1095.41H1090.69L1088.55 706.358L1029.22 837.047L969.641 706.293L967.559 701.824H962.844H883.735H876.265V709.79V754.346V762.312H883.735H897.267V949.474H882.633H875.102V957.439V1002V1009.96H882.633H971.478H979.009V1002V957.439V949.474H971.478H956.109V816.647L1022.48 961.39L1029.22 976.156L1036.08 961.39L1103.12 816.323V949.474H1088.49H1080.9V957.439V1002V1009.96H1088.49H1177.27H1184.8V1002V957.439V949.474H1177.27H1161.96V762.312H1177.27H1184.8V754.346V709.79V701.824H1177.27Z" fill="white"/>
<path d="M661.285 949.281H637.65L560.745 761.471H575.563V700.725H452.123V761.277H469.145L392.301 949.087H360.277V1009.64H472.329V949.087H456.041L468.838 917.807H561.296L574.032 949.087H556.826V1009.64H668.939V949.087L661.285 949.281ZM536.498 857.513H493.637L515.067 804.991L536.498 857.513Z" fill="white"/>
<path d="M1083.22 466.805H459.839H451.205V475.936V652.089V661.22H459.839H567.481H576.115V652.089V586.679H709.106V1050.83H647.203H638.631V1059.96V1173.81V1182.94H647.203H895.797H904.431V1173.81V1059.96V1050.83H895.797H834.016V586.679H966.212V651.247V660.378H974.845H1083.22H1091.86V651.247V475.936V466.805H1083.22Z" fill="white"/>
<path d="M852.445 1105.03L878.774 1076.34V1154.96L852.445 1128.35V1105.03Z" fill="#B1B3B6"/>
<path d="M808.605 1078.42L782.215 1105.88V531.955L808.605 559.738V1078.42Z" fill="#B1B3B6"/>
<path d="M503.986 521.852L476.922 494.004H1053.04L1018.99 521.852H503.986Z" fill="#B1B3B6"/>
<path d="M1067 634.861L1040.67 608.244V537.394L1067 508.77V634.861Z" fill="#B1B3B6"/>
<path d="M1362.8 1385.9C1362.8 1381.28 1364.1 1376.76 1366.52 1372.92C1368.95 1369.07 1372.4 1366.07 1376.44 1364.31C1380.48 1362.54 1384.93 1362.07 1389.22 1362.97C1393.5 1363.88 1397.44 1366.1 1400.53 1369.37C1403.62 1372.64 1405.73 1376.81 1406.58 1381.34C1407.44 1385.88 1407 1390.58 1405.32 1394.85C1403.65 1399.12 1400.82 1402.77 1397.18 1405.34C1393.55 1407.91 1389.27 1409.28 1384.9 1409.28C1379.04 1409.28 1373.42 1406.82 1369.27 1402.44C1365.13 1398.05 1362.8 1392.1 1362.8 1385.9ZM1401.62 1385.9C1401.4 1382.47 1400.24 1379.17 1398.28 1376.42C1396.32 1373.67 1393.64 1371.59 1390.57 1370.42C1387.51 1369.26 1384.18 1369.08 1381.02 1369.88C1377.85 1370.69 1374.98 1372.46 1372.75 1374.97C1370.52 1377.49 1369.03 1380.63 1368.47 1384.03C1367.91 1387.42 1368.3 1390.91 1369.59 1394.08C1370.88 1397.24 1373.02 1399.94 1375.74 1401.83C1378.46 1403.73 1381.65 1404.74 1384.9 1404.75C1387.18 1404.72 1389.43 1404.2 1391.52 1403.23C1393.61 1402.25 1395.49 1400.85 1397.05 1399.09C1398.61 1397.33 1399.82 1395.25 1400.6 1392.99C1401.39 1390.72 1401.73 1388.31 1401.62 1385.9ZM1376.39 1372.56H1385.7C1391.82 1372.56 1394.94 1374.77 1394.94 1380.33C1395.04 1381.28 1394.93 1382.23 1394.64 1383.13C1394.34 1384.02 1393.87 1384.84 1393.24 1385.52C1392.62 1386.2 1391.86 1386.72 1391.02 1387.06C1390.18 1387.39 1389.29 1387.53 1388.39 1387.46L1395.13 1399.05H1390.35L1383.8 1387.52H1380.98V1398.86H1376.33L1376.39 1372.56ZM1381.05 1383.9H1385.15C1387.9 1383.9 1390.29 1383.51 1390.29 1379.95C1390.29 1376.38 1387.6 1376.32 1385.21 1376.32H1381.05V1383.9Z" fill="#500000"/>
</svg>
